# xmcd
#
# Track frame offsets: 
#        150
#        21079
#        43649
#        68676
#        91897
#        115355
#        129161
#        139934
#        153631
#        171957
#
# Disc length: 2573 seconds
#
# Revision: 0
# Processed by: cddbd v1.5.1PL0 Copyright (c) Steve Scherf et al.
# Submitted via: ExactAudioCopy v0.95b2
#
DISCID=820a0b0a
DTITLE=Shipwreck - Origin
DYEAR=2005
DGENRE=Indie
TTITLE0=Cavern
TTITLE1=Island of the City
TTITLE2=Orphan
TTITLE3=Sawbones
TTITLE4=Coyote
TTITLE5=Double Six
TTITLE6=Buckle
TTITLE7=Souvenir
TTITLE8=Telegram
TTITLE9=Coma
EXTD=
EXTT0=
EXTT1=
EXTT2=
EXTT3=
EXTT4=
EXTT5=
EXTT6=
EXTT7=
EXTT8=
EXTT9=
PLAYORDER=
